<svg width="234" height="47" viewBox="0 0 234 47" fill="none" xmlns="http://www.w3.org/2000/svg">
<g id="AnyNote." filter="url(#filter0_i_1_3)">
<path d="M0.399994 35L14.35 0V0C19.1784 0 23.517 2.94909 25.2936 7.43876L32.5757 25.841C34.3147 30.2356 31.0762 35 26.35 35V35L24.2085 29.2L21.6238 22.2L20.35 18.75C20.0167 17.85 19.7167 17.0167 19.45 16.25C19.1833 15.4833 18.9333 14.7333 18.7 14C18.5399 13.4967 18.3797 12.9855 18.2196 12.4665C18.1464 12.2293 18.0732 11.9905 18 11.75C17.8 10.9833 17.6167 10.15 17.45 9.25L19.05 9.2C18.85 10.1667 18.6333 11.0333 18.4 11.8C18.3413 12.025 18.2811 12.2472 18.2196 12.4665C18.0714 12.9943 17.9148 13.5055 17.75 14C17.5167 14.7 17.25 15.4333 16.95 16.2C16.6833 16.9667 16.3833 17.8167 16.05 18.75L14.7761 22.2L12.1915 29.2V29.2C10.9046 32.6854 7.58262 35 3.86726 35H0.399994ZM7.19999 29.2L10.15 22.2H14.7761H21.6238H26.35L29.1 29.2H24.2085H12.1915H7.19999Z" fill="#1A1FA3"/>
<path d="M39.1191 35V8.35H42.4043C45.4575 8.35 47.9936 10.7052 48.2191 13.75V13.75L46.3191 14.35C46.6525 13.0833 47.3025 11.9667 48.2691 11C49.2358 10 50.3858 9.21667 51.7191 8.65C53.0525 8.08333 54.4525 7.8 55.9191 7.8C57.9191 7.8 59.6025 8.21667 60.9691 9.05C62.3691 9.85 63.4191 11.0667 64.1191 12.7C64.8525 14.3 65.2191 16.2667 65.2191 18.6V25.7C65.2191 30.8362 61.0554 35 55.9191 35V35V19.35C55.9191 18.4833 55.7858 17.7667 55.5191 17.2C55.2525 16.6 54.8525 16.15 54.3191 15.85C53.7858 15.55 53.1525 15.4167 52.4191 15.45C51.8525 15.45 51.3191 15.5333 50.8191 15.7C50.3525 15.8667 49.9358 16.1333 49.5691 16.5C49.2025 16.8333 48.9191 17.2167 48.7191 17.65C48.5525 18.0833 48.4691 18.5667 48.4691 19.1V30.35C48.4691 32.9181 46.3873 35 43.8191 35V35C42.6858 35 41.7191 35 40.9191 35C40.1525 35 39.5525 35 39.1191 35Z" fill="#1A1FA3"/>
<path d="M74.441 46.5L80.841 31.4L80.941 35.5L68.291 8.35H69.3847C75.0229 8.35 80.1109 11.7322 82.2933 16.9308L83.141 18.95C83.5077 19.7833 83.8243 20.6167 84.091 21.45C84.391 22.25 84.6077 23.0167 84.741 23.75L83.691 24.55C83.8243 24.1167 84.0243 23.5167 84.291 22.75C84.5577 21.9833 84.8577 21.1 85.191 20.1L89.241 8.35V8.35C94.1781 8.35 97.4988 13.4083 95.5355 17.9382L88.141 35L86.8835 38.1099C84.8331 43.1808 79.9107 46.5 74.441 46.5V46.5Z" fill="#1A1FA3"/>
<path d="M104.076 35V0H105.81C110.282 0 114.484 2.136 117.12 5.74829L129.926 23.3L127.876 22.8C127.709 21.5667 127.559 20.45 127.426 19.45C127.326 18.45 127.226 17.5 127.126 16.6C127.059 15.7 126.992 14.8 126.926 13.9C126.892 13 126.876 12.0167 126.876 10.95C126.876 9.88333 126.876 8.68333 126.876 7.35V0V0C132.15 0 136.426 4.27568 136.426 9.55V26.05C136.426 30.9929 132.419 35 127.476 35V35L109.176 10L112.626 10.85C112.792 12.2167 112.926 13.4 113.026 14.4C113.159 15.4 113.259 16.3 113.326 17.1C113.392 17.9 113.442 18.6667 113.476 19.4C113.542 20.1333 113.576 20.9167 113.576 21.75C113.609 22.5833 113.626 23.5333 113.626 24.6V25.45C113.626 30.7243 109.35 35 104.076 35V35Z" fill="#1A1FA3"/>
<path d="M156.95 35.5C154.116 35.5 151.583 34.9 149.35 33.7C147.116 32.5 145.366 30.8667 144.1 28.8C142.833 26.7333 142.2 24.35 142.2 21.65C142.2 18.95 142.833 16.5667 144.1 14.5C145.366 12.4333 147.116 10.8 149.35 9.6C151.583 8.4 154.116 7.8 156.95 7.8C159.783 7.8 162.3 8.4 164.5 9.6C166.733 10.8 168.483 12.4333 169.75 14.5C171.016 16.5667 171.65 18.95 171.65 21.65C171.65 24.35 171.016 26.7333 169.75 28.8C168.483 30.8667 166.733 32.5 164.5 33.7C162.3 34.9 159.783 35.5 156.95 35.5ZM156.95 27.65C157.95 27.65 158.85 27.4 159.65 26.9C160.483 26.3667 161.116 25.65 161.55 24.75C162.016 23.8167 162.25 22.7833 162.25 21.65C162.25 20.45 162.016 19.4 161.55 18.5C161.116 17.6 160.483 16.9 159.65 16.4C158.85 15.8667 157.95 15.6 156.95 15.6C155.916 15.6 155 15.8667 154.2 16.4C153.4 16.9 152.766 17.6167 152.3 18.55C151.833 19.45 151.6 20.4833 151.6 21.65C151.6 22.7833 151.833 23.8167 152.3 24.75C152.766 25.65 153.4 26.3667 154.2 26.9C155 27.4 155.916 27.65 156.95 27.65Z" fill="#1A1FA3"/>
<path d="M178.467 35V1.6V1.6C183.603 1.6 187.767 5.76375 187.767 10.9V35H178.467ZM174.067 16.25V8.35H184.517C188.88 8.35 192.417 11.887 192.417 16.25V16.25H174.067Z" fill="#1A1FA3"/>
<path d="M209.586 35.5C206.553 35.5 203.936 34.9167 201.736 33.75C199.536 32.55 197.836 30.9167 196.636 28.85C195.436 26.75 194.836 24.3667 194.836 21.7C194.836 19.7 195.17 17.85 195.836 16.15C196.503 14.45 197.436 12.9833 198.636 11.75C199.836 10.4833 201.253 9.51667 202.886 8.85C204.553 8.15 206.37 7.8 208.336 7.8C210.27 7.8 212.02 8.13333 213.586 8.8C215.186 9.46667 216.553 10.4167 217.686 11.65C218.853 12.8833 219.736 14.3333 220.336 16C220.97 17.6667 221.253 19.5 221.186 21.5L221.136 23.6H200.136L198.986 18.95H213.686L212.786 19.95V19C212.786 18.2667 212.586 17.6333 212.186 17.1C211.82 16.5333 211.32 16.1 210.686 15.8C210.053 15.5 209.336 15.35 208.536 15.35C207.403 15.35 206.453 15.5833 205.686 16.05C204.953 16.4833 204.386 17.1167 203.986 17.95C203.586 18.7833 203.386 19.7833 203.386 20.95C203.386 22.2833 203.653 23.4333 204.186 24.4C204.753 25.3667 205.57 26.1167 206.636 26.65C207.736 27.1833 209.07 27.45 210.636 27.45C211.67 27.45 212.57 27.3167 213.336 27.05C214.136 26.7833 214.986 26.3167 215.886 25.65L220.186 31.7C219.02 32.6333 217.836 33.3833 216.636 33.95C215.47 34.4833 214.303 34.8667 213.136 35.1C211.97 35.3667 210.786 35.5 209.586 35.5Z" fill="#1A1FA3"/>
<path d="M229.283 35.55C227.783 35.55 226.617 35.1333 225.783 34.3C224.983 33.4667 224.583 32.2833 224.583 30.75C224.583 29.35 225.017 28.2 225.883 27.3C226.75 26.4 227.883 25.95 229.283 25.95C230.75 25.95 231.9 26.3667 232.733 27.2C233.567 28.0333 233.983 29.2167 233.983 30.75C233.983 32.15 233.55 33.3 232.683 34.2C231.817 35.1 230.683 35.55 229.283 35.55Z" fill="#1A1FA3"/>
</g>
<defs>
<filter id="filter0_i_1_3" x="0.399994" y="0" width="233.583" height="50.5" filterUnits="userSpaceOnUse" color-interpolation-filters="sRGB">
<feFlood flood-opacity="0" result="BackgroundImageFix"/>
<feBlend mode="normal" in="SourceGraphic" in2="BackgroundImageFix" result="shape"/>
<feColorMatrix in="SourceAlpha" type="matrix" values="0 0 0 0 0 0 0 0 0 0 0 0 0 0 0 0 0 0 127 0" result="hardAlpha"/>
<feOffset dy="4"/>
<feGaussianBlur stdDeviation="2"/>
<feComposite in2="hardAlpha" operator="arithmetic" k2="-1" k3="1"/>
<feColorMatrix type="matrix" values="0 0 0 0 0 0 0 0 0 0 0 0 0 0 0 0 0 0 0.25 0"/>
<feBlend mode="normal" in2="shape" result="effect1_innerShadow_1_3"/>
</filter>
</defs>
</svg>
